<?xml version="1.0" encoding="UTF-8" standalone="no"?>
<!DOCTYPE svg PUBLIC "-//W3C//DTD SVG 1.1//EN"
 "http://www.w3.org/Graphics/SVG/1.1/DTD/svg11.dtd">
<!-- Generated by graphviz version 2.48.0 (20210717.1556)
 -->
<!-- Title: G Pages: 1 -->
<svg width="602pt" height="44pt"
 viewBox="0.00 0.00 602.00 44.00" xmlns="http://www.w3.org/2000/svg" xmlns:xlink="http://www.w3.org/1999/xlink">
<g id="graph0" class="graph" transform="scale(1 1) rotate(0) translate(4 40)">
<title>G</title>
<polygon fill="white" stroke="transparent" points="-4,4 -4,-40 598,-40 598,4 -4,4"/>
<!-- nodo366712642 -->
<g id="node1" class="node">
<title>nodo366712642</title>
<polygon fill="none" stroke="red" points="54,-36 0,-36 0,0 54,0 54,-36"/>
<text text-anchor="middle" x="27" y="-14.3" font-family="Times New Roman,serif" font-size="14.00">1</text>
</g>
<!-- nodo1829164700 -->
<g id="node2" class="node">
<title>nodo1829164700</title>
<polygon fill="none" stroke="red" points="144,-36 90,-36 90,0 144,0 144,-36"/>
<text text-anchor="middle" x="117" y="-14.3" font-family="Times New Roman,serif" font-size="14.00">2</text>
</g>
<!-- nodo366712642&#45;&gt;nodo1829164700 -->
<g id="edge1" class="edge">
<title>nodo366712642&#45;&gt;nodo1829164700</title>
<path fill="none" stroke="black" d="M54.4,-18C62.39,-18 71.31,-18 79.82,-18"/>
<polygon fill="black" stroke="black" points="79.92,-21.5 89.92,-18 79.92,-14.5 79.92,-21.5"/>
</g>
<!-- nodo1956725890 -->
<g id="node3" class="node">
<title>nodo1956725890</title>
<polygon fill="none" stroke="red" points="234,-36 180,-36 180,0 234,0 234,-36"/>
<text text-anchor="middle" x="207" y="-14.3" font-family="Times New Roman,serif" font-size="14.00">3</text>
</g>
<!-- nodo1829164700&#45;&gt;nodo1956725890 -->
<g id="edge2" class="edge">
<title>nodo1829164700&#45;&gt;nodo1956725890</title>
<path fill="none" stroke="black" d="M144.4,-18C152.39,-18 161.31,-18 169.82,-18"/>
<polygon fill="black" stroke="black" points="169.92,-21.5 179.92,-18 169.92,-14.5 169.92,-21.5"/>
</g>
<!-- nodo356573597 -->
<g id="node4" class="node">
<title>nodo356573597</title>
<polygon fill="none" stroke="red" points="324,-36 270,-36 270,0 324,0 324,-36"/>
<text text-anchor="middle" x="297" y="-14.3" font-family="Times New Roman,serif" font-size="14.00">4</text>
</g>
<!-- nodo1956725890&#45;&gt;nodo356573597 -->
<g id="edge3" class="edge">
<title>nodo1956725890&#45;&gt;nodo356573597</title>
<path fill="none" stroke="black" d="M234.4,-18C242.39,-18 251.31,-18 259.82,-18"/>
<polygon fill="black" stroke="black" points="259.92,-21.5 269.92,-18 259.92,-14.5 259.92,-21.5"/>
</g>
<!-- nodo1735600054 -->
<g id="node5" class="node">
<title>nodo1735600054</title>
<polygon fill="none" stroke="red" points="414,-36 360,-36 360,0 414,0 414,-36"/>
<text text-anchor="middle" x="387" y="-14.3" font-family="Times New Roman,serif" font-size="14.00">5</text>
</g>
<!-- nodo356573597&#45;&gt;nodo1735600054 -->
<g id="edge4" class="edge">
<title>nodo356573597&#45;&gt;nodo1735600054</title>
<path fill="none" stroke="black" d="M324.4,-18C332.39,-18 341.31,-18 349.82,-18"/>
<polygon fill="black" stroke="black" points="349.92,-21.5 359.92,-18 349.92,-14.5 349.92,-21.5"/>
</g>
<!-- nodo21685669 -->
<g id="node6" class="node">
<title>nodo21685669</title>
<polygon fill="none" stroke="red" points="504,-36 450,-36 450,0 504,0 504,-36"/>
<text text-anchor="middle" x="477" y="-14.3" font-family="Times New Roman,serif" font-size="14.00">6</text>
</g>
<!-- nodo1735600054&#45;&gt;nodo21685669 -->
<g id="edge5" class="edge">
<title>nodo1735600054&#45;&gt;nodo21685669</title>
<path fill="none" stroke="black" d="M414.4,-18C422.39,-18 431.31,-18 439.82,-18"/>
<polygon fill="black" stroke="black" points="439.92,-21.5 449.92,-18 439.92,-14.5 439.92,-21.5"/>
</g>
<!-- nodo2133927002 -->
<g id="node7" class="node">
<title>nodo2133927002</title>
<polygon fill="none" stroke="red" points="594,-36 540,-36 540,0 594,0 594,-36"/>
<text text-anchor="middle" x="567" y="-14.3" font-family="Times New Roman,serif" font-size="14.00">7</text>
</g>
<!-- nodo21685669&#45;&gt;nodo2133927002 -->
<g id="edge6" class="edge">
<title>nodo21685669&#45;&gt;nodo2133927002</title>
<path fill="none" stroke="black" d="M504.4,-18C512.39,-18 521.31,-18 529.82,-18"/>
<polygon fill="black" stroke="black" points="529.92,-21.5 539.92,-18 529.92,-14.5 529.92,-21.5"/>
</g>
</g>
</svg>
